<svg xmlns="http://www.w3.org/2000/svg" xmlns:xlink="http://www.w3.org/1999/xlink" width="65" zoomAndPan="magnify" viewBox="0 0 48.75 30.000001" height="40" preserveAspectRatio="xMidYMid meet" version="1.0"><defs><g/><clipPath id="a87962f3fe"><path d="M 24.40625 0.910156 L 43.53125 0.910156 L 43.53125 24.828125 L 24.40625 24.828125 Z M 24.40625 0.910156 " clip-rule="nonzero"/></clipPath><clipPath id="65d0a02dc3"><path d="M 43 9 L 43.757812 9 L 43.757812 10 L 43 10 Z M 43 9 " clip-rule="nonzero"/></clipPath><clipPath id="95225347c1"><path d="M 31.417969 3.210938 L 43.757812 3.210938 L 43.757812 14.515625 L 31.417969 14.515625 Z M 31.417969 3.210938 " clip-rule="nonzero"/></clipPath><clipPath id="11c9b084d6"><path d="M 41 2.902344 L 42 2.902344 L 42 4 L 41 4 Z M 41 2.902344 " clip-rule="nonzero"/></clipPath><clipPath id="ed467b277a"><path d="M 36 2.902344 L 37 2.902344 L 37 4 L 36 4 Z M 36 2.902344 " clip-rule="nonzero"/></clipPath><clipPath id="413232a6f7"><path d="M 31.417969 9 L 33 9 L 33 10 L 31.417969 10 Z M 31.417969 9 " clip-rule="nonzero"/></clipPath><clipPath id="1dc6a1308f"><path d="M 39.257812 14.355469 L 39.355469 14.355469 L 39.355469 14.515625 L 39.257812 14.515625 Z M 39.257812 14.355469 " clip-rule="nonzero"/></clipPath><clipPath id="c706edf4c8"><path d="M 39 14 L 40 14 L 40 14.515625 L 39 14.515625 Z M 39 14 " clip-rule="nonzero"/></clipPath></defs><g clip-path="url(#a87962f3fe)"><path fill="#ffffff" d="M 24.40625 0.910156 L 43.53125 0.910156 L 43.53125 24.828125 L 24.40625 24.828125 Z M 24.40625 0.910156 " fill-opacity="1" fill-rule="nonzero"/></g><g fill="#ffffff" fill-opacity="1"><g transform="translate(3.090222, 18.677944)"><g><path d="M 7.859375 -11.375 C 8.003906 -10.207031 7.976562 -9.125 7.78125 -8.125 C 7.59375 -7.125 7.25 -6.175781 6.75 -5.28125 C 6.25 -4.382812 5.617188 -3.515625 4.859375 -2.671875 C 4.796875 -2.609375 4.765625 -2.546875 4.765625 -2.484375 C 4.765625 -2.429688 4.796875 -2.367188 4.859375 -2.296875 C 5.015625 -2.078125 5.179688 -1.875 5.359375 -1.6875 C 5.535156 -1.5 5.742188 -1.335938 5.984375 -1.203125 C 6.160156 -1.015625 6.1875 -0.882812 6.0625 -0.8125 C 5.945312 -0.75 5.722656 -0.785156 5.390625 -0.921875 C 5.066406 -1.066406 4.691406 -1.367188 4.265625 -1.828125 C 4.179688 -1.921875 4.085938 -1.929688 3.984375 -1.859375 C 3.867188 -1.785156 3.753906 -1.707031 3.640625 -1.625 C 3.535156 -1.550781 3.4375 -1.484375 3.34375 -1.421875 C 3 -1.179688 2.632812 -0.984375 2.25 -0.828125 C 1.84375 -0.640625 1.414062 -0.566406 0.96875 -0.609375 C 0.28125 -0.691406 -0.0703125 -1.078125 -0.09375 -1.765625 C -0.113281 -2.253906 -0.015625 -2.6875 0.203125 -3.0625 C 0.421875 -3.445312 0.71875 -3.726562 1.09375 -3.90625 C 1.476562 -4.09375 1.921875 -4.132812 2.421875 -4.03125 C 2.492188 -4.019531 2.570312 -4.003906 2.65625 -3.984375 C 2.707031 -3.972656 2.773438 -3.953125 2.859375 -3.921875 C 2.804688 -4.035156 2.757812 -4.140625 2.71875 -4.234375 C 2.65625 -4.390625 2.59375 -4.523438 2.53125 -4.640625 C 2.207031 -5.328125 1.9375 -6.113281 1.71875 -7 C 1.507812 -7.882812 1.40625 -8.789062 1.40625 -9.71875 C 1.40625 -10.644531 1.5625 -11.507812 1.875 -12.3125 C 2.1875 -13.113281 2.695312 -13.773438 3.40625 -14.296875 C 3.851562 -14.597656 4.316406 -14.757812 4.796875 -14.78125 C 5.285156 -14.8125 5.742188 -14.707031 6.171875 -14.46875 C 6.597656 -14.238281 6.945312 -13.890625 7.21875 -13.421875 C 7.570312 -12.773438 7.785156 -12.09375 7.859375 -11.375 Z M 3.25 -2.203125 C 3.351562 -2.285156 3.363281 -2.382812 3.28125 -2.5 C 3.238281 -2.550781 3.191406 -2.609375 3.140625 -2.671875 C 3.003906 -2.828125 2.851562 -2.988281 2.6875 -3.15625 C 2.519531 -3.332031 2.34375 -3.46875 2.15625 -3.5625 C 1.96875 -3.65625 1.785156 -3.660156 1.609375 -3.578125 C 1.347656 -3.453125 1.132812 -3.234375 0.96875 -2.921875 C 0.8125 -2.617188 0.71875 -2.304688 0.6875 -1.984375 C 0.65625 -1.660156 0.710938 -1.414062 0.859375 -1.25 C 1.015625 -1.082031 1.285156 -1.066406 1.671875 -1.203125 C 2.242188 -1.453125 2.769531 -1.785156 3.25 -2.203125 Z M 4.484375 -3.421875 C 5.265625 -4.328125 5.84375 -5.222656 6.21875 -6.109375 C 6.601562 -6.992188 6.867188 -8.03125 7.015625 -9.21875 C 7.046875 -9.507812 7.0625 -9.890625 7.0625 -10.359375 C 7.0625 -10.835938 7.019531 -11.332031 6.9375 -11.84375 C 6.851562 -12.351562 6.703125 -12.816406 6.484375 -13.234375 C 6.273438 -13.660156 5.984375 -13.960938 5.609375 -14.140625 C 5.234375 -14.328125 4.753906 -14.328125 4.171875 -14.140625 C 3.515625 -13.773438 3.03125 -13.273438 2.71875 -12.640625 C 2.414062 -12.003906 2.242188 -11.300781 2.203125 -10.53125 C 2.160156 -9.769531 2.210938 -8.988281 2.359375 -8.1875 C 2.503906 -7.382812 2.703125 -6.625 2.953125 -5.90625 C 3.210938 -5.1875 3.492188 -4.5625 3.796875 -4.03125 C 3.828125 -3.957031 3.859375 -3.890625 3.890625 -3.828125 C 3.984375 -3.617188 4.113281 -3.425781 4.28125 -3.25 C 4.300781 -3.257812 4.328125 -3.273438 4.359375 -3.296875 C 4.398438 -3.328125 4.441406 -3.367188 4.484375 -3.421875 Z M 4.484375 -3.421875 "/></g></g></g><g fill="#ffffff" fill-opacity="1"><g transform="translate(9.839704, 18.677944)"><g><path d="M 4.90625 -2.640625 C 4.976562 -2.679688 5.050781 -2.710938 5.125 -2.734375 C 5.195312 -2.753906 5.242188 -2.75 5.265625 -2.71875 C 5.285156 -2.695312 5.253906 -2.640625 5.171875 -2.546875 C 4.910156 -2.253906 4.601562 -1.988281 4.25 -1.75 C 3.90625 -1.507812 3.550781 -1.304688 3.1875 -1.140625 C 2.894531 -1.003906 2.585938 -0.898438 2.265625 -0.828125 C 1.941406 -0.753906 1.617188 -0.738281 1.296875 -0.78125 C 0.984375 -0.820312 0.703125 -0.960938 0.453125 -1.203125 C 0.140625 -1.503906 -0.0234375 -1.894531 -0.046875 -2.375 C -0.078125 -2.851562 0.03125 -3.253906 0.28125 -3.578125 C 0.601562 -3.941406 1.019531 -4.175781 1.53125 -4.28125 C 2.039062 -4.394531 2.492188 -4.316406 2.890625 -4.046875 C 3.085938 -3.910156 3.164062 -3.75 3.125 -3.5625 C 3.09375 -3.382812 3 -3.21875 2.84375 -3.0625 C 2.6875 -2.90625 2.507812 -2.785156 2.3125 -2.703125 C 2.019531 -2.585938 1.757812 -2.5625 1.53125 -2.625 C 1.300781 -2.695312 1.125 -2.789062 1 -2.90625 C 0.90625 -2.875 0.847656 -2.742188 0.828125 -2.515625 C 0.765625 -2.097656 0.894531 -1.753906 1.21875 -1.484375 C 1.488281 -1.285156 1.828125 -1.234375 2.234375 -1.328125 C 2.640625 -1.421875 3.054688 -1.582031 3.484375 -1.8125 C 3.910156 -2.039062 4.296875 -2.257812 4.640625 -2.46875 C 4.734375 -2.519531 4.820312 -2.578125 4.90625 -2.640625 Z M 2.234375 -3.703125 C 2.179688 -3.773438 2.097656 -3.800781 1.984375 -3.78125 C 1.878906 -3.769531 1.769531 -3.738281 1.65625 -3.6875 C 1.539062 -3.632812 1.4375 -3.578125 1.34375 -3.515625 C 1.257812 -3.453125 1.222656 -3.40625 1.234375 -3.375 C 1.234375 -3.363281 1.242188 -3.335938 1.265625 -3.296875 C 1.285156 -3.265625 1.316406 -3.226562 1.359375 -3.1875 C 1.398438 -3.144531 1.453125 -3.113281 1.515625 -3.09375 C 1.585938 -3.082031 1.675781 -3.085938 1.78125 -3.109375 C 1.945312 -3.160156 2.0625 -3.222656 2.125 -3.296875 C 2.195312 -3.378906 2.238281 -3.457031 2.25 -3.53125 C 2.257812 -3.601562 2.253906 -3.660156 2.234375 -3.703125 Z M 2.234375 -3.703125 "/></g></g></g><g fill="#ffffff" fill-opacity="1"><g transform="translate(14.50649, 18.677944)"><g><path d="M 1.625 -2 C 1.75 -1.84375 1.832031 -1.675781 1.875 -1.5 C 1.914062 -1.332031 1.929688 -1.144531 1.921875 -0.9375 C 1.910156 -0.738281 1.84375 -0.5625 1.71875 -0.40625 C 1.59375 -0.25 1.390625 -0.148438 1.109375 -0.109375 C 0.828125 -0.0859375 0.570312 -0.128906 0.34375 -0.234375 C 0.125 -0.347656 -0.0078125 -0.507812 -0.0625 -0.71875 C -0.125 -0.925781 -0.0546875 -1.164062 0.140625 -1.4375 C 0.273438 -1.59375 0.429688 -1.726562 0.609375 -1.84375 C 0.671875 -1.882812 0.734375 -1.925781 0.796875 -1.96875 C 0.578125 -2.207031 0.367188 -2.445312 0.171875 -2.6875 C -0.015625 -2.9375 -0.132812 -3.160156 -0.1875 -3.359375 C -0.25 -3.585938 -0.210938 -3.800781 -0.078125 -4 C 0.0546875 -4.195312 0.289062 -4.3125 0.625 -4.34375 C 0.78125 -4.351562 0.925781 -4.34375 1.0625 -4.3125 C 1.207031 -4.28125 1.34375 -4.210938 1.46875 -4.109375 C 1.488281 -4.085938 1.503906 -4.0625 1.515625 -4.03125 C 1.523438 -4 1.519531 -3.957031 1.5 -3.90625 C 1.457031 -3.832031 1.398438 -3.796875 1.328125 -3.796875 C 1.265625 -3.796875 1.207031 -3.800781 1.15625 -3.8125 C 1.09375 -3.84375 1.039062 -3.867188 1 -3.890625 C 0.957031 -3.910156 0.925781 -3.925781 0.90625 -3.9375 C 0.789062 -3.976562 0.703125 -3.972656 0.640625 -3.921875 C 0.585938 -3.867188 0.5625 -3.789062 0.5625 -3.6875 C 0.570312 -3.5 0.648438 -3.296875 0.796875 -3.078125 C 0.941406 -2.867188 1.085938 -2.675781 1.234375 -2.5 C 1.296875 -2.4375 1.347656 -2.375 1.390625 -2.3125 C 1.421875 -2.269531 1.5 -2.164062 1.625 -2 Z M 0.875 -0.53125 C 0.988281 -0.539062 1.0625 -0.597656 1.09375 -0.703125 C 1.125 -0.816406 1.132812 -0.9375 1.125 -1.0625 C 1.113281 -1.195312 1.109375 -1.300781 1.109375 -1.375 C 1.085938 -1.40625 1.054688 -1.425781 1.015625 -1.4375 C 0.984375 -1.457031 0.953125 -1.457031 0.921875 -1.4375 C 0.796875 -1.34375 0.703125 -1.222656 0.640625 -1.078125 C 0.585938 -0.929688 0.597656 -0.800781 0.671875 -0.6875 C 0.691406 -0.644531 0.71875 -0.609375 0.75 -0.578125 C 0.789062 -0.554688 0.832031 -0.539062 0.875 -0.53125 Z M 0.875 -0.53125 "/></g></g></g><g fill="#ffffff" fill-opacity="1"><g transform="translate(16.919772, 18.677944)"><g><path d="M 1.625 -2 C 1.75 -1.84375 1.832031 -1.675781 1.875 -1.5 C 1.914062 -1.332031 1.929688 -1.144531 1.921875 -0.9375 C 1.910156 -0.738281 1.84375 -0.5625 1.71875 -0.40625 C 1.59375 -0.25 1.390625 -0.148438 1.109375 -0.109375 C 0.828125 -0.0859375 0.570312 -0.128906 0.34375 -0.234375 C 0.125 -0.347656 -0.0078125 -0.507812 -0.0625 -0.71875 C -0.125 -0.925781 -0.0546875 -1.164062 0.140625 -1.4375 C 0.273438 -1.59375 0.429688 -1.726562 0.609375 -1.84375 C 0.671875 -1.882812 0.734375 -1.925781 0.796875 -1.96875 C 0.578125 -2.207031 0.367188 -2.445312 0.171875 -2.6875 C -0.015625 -2.9375 -0.132812 -3.160156 -0.1875 -3.359375 C -0.25 -3.585938 -0.210938 -3.800781 -0.078125 -4 C 0.0546875 -4.195312 0.289062 -4.3125 0.625 -4.34375 C 0.78125 -4.351562 0.925781 -4.34375 1.0625 -4.3125 C 1.207031 -4.28125 1.34375 -4.210938 1.46875 -4.109375 C 1.488281 -4.085938 1.503906 -4.0625 1.515625 -4.03125 C 1.523438 -4 1.519531 -3.957031 1.5 -3.90625 C 1.457031 -3.832031 1.398438 -3.796875 1.328125 -3.796875 C 1.265625 -3.796875 1.207031 -3.800781 1.15625 -3.8125 C 1.09375 -3.84375 1.039062 -3.867188 1 -3.890625 C 0.957031 -3.910156 0.925781 -3.925781 0.90625 -3.9375 C 0.789062 -3.976562 0.703125 -3.972656 0.640625 -3.921875 C 0.585938 -3.867188 0.5625 -3.789062 0.5625 -3.6875 C 0.570312 -3.5 0.648438 -3.296875 0.796875 -3.078125 C 0.941406 -2.867188 1.085938 -2.675781 1.234375 -2.5 C 1.296875 -2.4375 1.347656 -2.375 1.390625 -2.3125 C 1.421875 -2.269531 1.5 -2.164062 1.625 -2 Z M 0.875 -0.53125 C 0.988281 -0.539062 1.0625 -0.597656 1.09375 -0.703125 C 1.125 -0.816406 1.132812 -0.9375 1.125 -1.0625 C 1.113281 -1.195312 1.109375 -1.300781 1.109375 -1.375 C 1.085938 -1.40625 1.054688 -1.425781 1.015625 -1.4375 C 0.984375 -1.457031 0.953125 -1.457031 0.921875 -1.4375 C 0.796875 -1.34375 0.703125 -1.222656 0.640625 -1.078125 C 0.585938 -0.929688 0.597656 -0.800781 0.671875 -0.6875 C 0.691406 -0.644531 0.71875 -0.609375 0.75 -0.578125 C 0.789062 -0.554688 0.832031 -0.539062 0.875 -0.53125 Z M 0.875 -0.53125 "/></g></g></g><g fill="#ffffff" fill-opacity="1"><g transform="translate(19.333054, 18.677944)"><g><path d="M 3.15625 -3.640625 C 3.320312 -3.660156 3.441406 -3.628906 3.515625 -3.546875 C 3.566406 -3.460938 3.585938 -3.15625 3.578125 -2.625 C 3.566406 -2.101562 3.539062 -1.492188 3.5 -0.796875 C 3.457031 -0.0976562 3.40625 0.546875 3.34375 1.140625 C 3.289062 1.734375 3.25 2.148438 3.21875 2.390625 C 2.976562 3.734375 2.554688 4.859375 1.953125 5.765625 C 1.347656 6.671875 0.65625 7.367188 -0.125 7.859375 C -0.90625 8.359375 -1.671875 8.660156 -2.421875 8.765625 C -3.179688 8.867188 -3.828125 8.796875 -4.359375 8.546875 C -4.890625 8.296875 -5.203125 7.875 -5.296875 7.28125 C -5.398438 6.695312 -5.191406 5.957031 -4.671875 5.0625 C -4.148438 4.175781 -3.210938 3.15625 -1.859375 2 C -1.316406 1.550781 -0.570312 1.007812 0.375 0.375 C 1.320312 -0.25 2.070312 -0.675781 2.625 -0.90625 C 2.632812 -1.007812 2.644531 -1.125 2.65625 -1.25 C 2.425781 -0.988281 2.191406 -0.835938 1.953125 -0.796875 C 1.710938 -0.753906 1.492188 -0.75 1.296875 -0.78125 C 1.285156 -0.78125 1.273438 -0.78125 1.265625 -0.78125 C 0.898438 -0.832031 0.613281 -1 0.40625 -1.28125 C 0.195312 -1.570312 0.0625 -1.898438 0 -2.265625 C -0.0507812 -2.640625 -0.0351562 -2.972656 0.046875 -3.265625 C 0.140625 -3.554688 0.3125 -3.726562 0.5625 -3.78125 C 0.65625 -3.800781 0.757812 -3.8125 0.875 -3.8125 C 1 -3.8125 1.101562 -3.796875 1.1875 -3.765625 C 1.269531 -3.734375 1.300781 -3.671875 1.28125 -3.578125 C 1.195312 -3.285156 1.148438 -2.960938 1.140625 -2.609375 C 1.128906 -2.253906 1.160156 -1.945312 1.234375 -1.6875 C 1.304688 -1.425781 1.4375 -1.285156 1.625 -1.265625 C 1.8125 -1.242188 2.0625 -1.414062 2.375 -1.78125 C 2.519531 -1.96875 2.625 -2.164062 2.6875 -2.375 C 2.6875 -2.601562 2.679688 -2.816406 2.671875 -3.015625 C 2.660156 -3.203125 2.65625 -3.359375 2.65625 -3.484375 C 2.695312 -3.546875 2.765625 -3.585938 2.859375 -3.609375 C 2.953125 -3.628906 3.035156 -3.640625 3.109375 -3.640625 C 3.128906 -3.640625 3.144531 -3.640625 3.15625 -3.640625 Z M 2.609375 0.0625 C 2.609375 0.0625 2.609375 0.0507812 2.609375 0.03125 C 2.617188 -0.0078125 2.625 -0.0664062 2.625 -0.140625 C 2.625 -0.222656 2.617188 -0.285156 2.609375 -0.328125 C 2.597656 -0.367188 2.566406 -0.375 2.515625 -0.34375 C 2.453125 -0.300781 2.382812 -0.257812 2.3125 -0.21875 C 1.84375 0.101562 1.226562 0.546875 0.46875 1.109375 C -0.28125 1.671875 -1.035156 2.3125 -1.796875 3.03125 C -1.953125 3.175781 -2.164062 3.390625 -2.4375 3.671875 C -2.71875 3.960938 -3.007812 4.289062 -3.3125 4.65625 C -3.625 5.03125 -3.894531 5.410156 -4.125 5.796875 C -4.363281 6.191406 -4.507812 6.5625 -4.5625 6.90625 C -4.625 7.257812 -4.546875 7.5625 -4.328125 7.8125 C -4.046875 8.101562 -3.632812 8.226562 -3.09375 8.1875 C -2.5625 8.15625 -1.972656 7.957031 -1.328125 7.59375 C -0.691406 7.226562 -0.0820312 6.703125 0.5 6.015625 C 1.09375 5.328125 1.582031 4.488281 1.96875 3.5 C 2.363281 2.507812 2.578125 1.363281 2.609375 0.0625 Z M 2.609375 0.0625 "/></g></g></g><g fill="#000000" fill-opacity="1"><g transform="translate(23.787046, 18.677944)"><g><path d="M 4.640625 -17.859375 C 4.734375 -17.859375 4.832031 -17.867188 4.9375 -17.890625 C 5.03125 -17.910156 5.125 -17.925781 5.21875 -17.9375 C 5.644531 -17.976562 6.070312 -18.023438 6.5 -18.078125 L 7.53125 -18.203125 C 7.5625 -18.203125 7.597656 -18.203125 7.640625 -18.203125 C 7.710938 -18.222656 7.785156 -18.234375 7.859375 -18.234375 C 7.878906 -18.222656 7.898438 -18.210938 7.921875 -18.203125 C 7.992188 -18.222656 8.0625 -18.234375 8.125 -18.234375 C 8.195312 -18.222656 8.257812 -18.179688 8.3125 -18.109375 C 8.351562 -18.035156 8.332031 -17.96875 8.25 -17.90625 C 8.164062 -17.851562 8.03125 -17.8125 7.84375 -17.78125 L 6.6875 -17.625 C 6.332031 -17.5625 5.976562 -17.503906 5.625 -17.453125 C 5.363281 -17.410156 5.109375 -17.367188 4.859375 -17.328125 C 4.722656 -17.296875 4.632812 -17.253906 4.59375 -17.203125 C 4.5625 -17.160156 4.546875 -17.078125 4.546875 -16.953125 L 4.546875 -16.015625 C 4.566406 -15.378906 4.566406 -14.75 4.546875 -14.125 C 4.429688 -11.101562 4.304688 -8.082031 4.171875 -5.0625 C 4.097656 -3.46875 4.019531 -1.882812 3.9375 -0.3125 C 3.90625 0.445312 3.867188 1.210938 3.828125 1.984375 L 3.796875 2.546875 C 3.796875 2.679688 3.800781 2.78125 3.8125 2.84375 C 3.832031 2.90625 3.867188 2.953125 3.921875 2.984375 C 3.972656 3.023438 4.0625 3.066406 4.1875 3.109375 C 4.882812 3.378906 5.582031 3.648438 6.28125 3.921875 C 6.4375 3.984375 6.582031 4.054688 6.71875 4.140625 C 6.78125 4.171875 6.820312 4.207031 6.84375 4.25 C 6.875 4.300781 6.875 4.363281 6.84375 4.4375 C 6.78125 4.570312 6.664062 4.632812 6.5 4.625 C 6.46875 4.625 6.441406 4.617188 6.421875 4.609375 L 6.40625 4.609375 C 6.351562 4.617188 6.296875 4.625 6.234375 4.625 C 6.203125 4.625 6.175781 4.617188 6.15625 4.609375 C 6.132812 4.597656 6.125 4.585938 6.125 4.578125 C 5.238281 4.203125 4.34375 3.878906 3.4375 3.609375 C 2.53125 3.347656 1.597656 3.160156 0.640625 3.046875 C 0.578125 3.023438 0.515625 3.003906 0.453125 2.984375 C 0.410156 2.953125 0.382812 2.921875 0.375 2.890625 C 0.375 2.859375 0.382812 2.828125 0.40625 2.796875 C 0.550781 2.628906 0.734375 2.546875 0.953125 2.546875 C 1.117188 2.535156 1.28125 2.53125 1.4375 2.53125 C 1.789062 2.519531 2.140625 2.550781 2.484375 2.625 C 2.609375 2.65625 2.710938 2.679688 2.796875 2.703125 L 2.859375 2.671875 C 2.929688 2.617188 2.960938 2.425781 2.953125 2.09375 C 2.960938 2.070312 2.96875 2.046875 2.96875 2.015625 C 2.976562 1.597656 3 1.175781 3.03125 0.75 C 3.0625 0.320312 3.085938 -0.09375 3.109375 -0.5 C 3.160156 -2.289062 3.207031 -4.082031 3.25 -5.875 C 3.269531 -6.570312 3.289062 -7.269531 3.3125 -7.96875 L 3.28125 -7.96875 L 3.359375 -9.640625 C 3.421875 -10.984375 3.476562 -12.328125 3.53125 -13.671875 C 3.550781 -14.378906 3.5625 -15.078125 3.5625 -15.765625 L 3.5625 -16.484375 C 3.5625 -16.628906 3.554688 -16.769531 3.546875 -16.90625 C 3.535156 -16.957031 3.515625 -17 3.484375 -17.03125 C 3.460938 -17.039062 3.453125 -17.050781 3.453125 -17.0625 L 3.109375 -17.015625 C 3.046875 -16.992188 2.976562 -16.976562 2.90625 -16.96875 C 2.71875 -16.945312 2.523438 -16.921875 2.328125 -16.890625 C 1.878906 -16.816406 1.425781 -16.75 0.96875 -16.6875 C 0.832031 -16.675781 0.71875 -16.671875 0.625 -16.671875 C 0.207031 -16.640625 0.0195312 -16.71875 0.0625 -16.90625 C 0.101562 -17.019531 0.164062 -17.09375 0.25 -17.125 C 0.332031 -17.15625 0.425781 -17.175781 0.53125 -17.1875 C 0.5625 -17.195312 0.59375 -17.203125 0.625 -17.203125 C 0.851562 -17.242188 1.085938 -17.285156 1.328125 -17.328125 C 1.859375 -17.410156 2.390625 -17.492188 2.921875 -17.578125 C 3.066406 -17.597656 3.203125 -17.628906 3.328125 -17.671875 C 3.453125 -17.710938 3.566406 -17.789062 3.671875 -17.90625 C 3.710938 -17.957031 3.765625 -17.988281 3.828125 -18 C 3.890625 -18.019531 3.945312 -18.019531 4 -18 C 4 -17.988281 4.007812 -17.984375 4.03125 -17.984375 C 4.039062 -17.992188 4.066406 -18 4.109375 -18 C 4.160156 -18.019531 4.210938 -18.019531 4.265625 -18 C 4.390625 -17.925781 4.515625 -17.878906 4.640625 -17.859375 Z M 4.640625 -17.859375 "/></g></g></g><g fill="#000000" fill-opacity="1"><g transform="translate(29.908413, 18.677944)"><g><path d="M 8.125 -3.34375 C 8.289062 -3.414062 8.382812 -3.425781 8.40625 -3.375 C 8.4375 -3.28125 8.347656 -3.109375 8.140625 -2.859375 C 7.941406 -2.617188 7.671875 -2.367188 7.328125 -2.109375 C 6.492188 -1.523438 5.789062 -1.175781 5.21875 -1.0625 C 4.65625 -0.945312 4.191406 -0.984375 3.828125 -1.171875 C 3.460938 -1.359375 3.191406 -1.613281 3.015625 -1.9375 C 2.804688 -2.300781 2.675781 -2.660156 2.625 -3.015625 C 2.5625 -3.410156 2.46875 -3.628906 2.34375 -3.671875 C 2.21875 -3.722656 2.085938 -3.664062 1.953125 -3.5 C 1.816406 -3.34375 1.679688 -3.132812 1.546875 -2.875 C 1.421875 -2.613281 1.316406 -2.359375 1.234375 -2.109375 C 1.148438 -1.859375 1.101562 -1.664062 1.09375 -1.53125 C 1.0625 -1.457031 1.035156 -1.390625 1.015625 -1.328125 C 0.984375 -1.222656 0.945312 -1.125 0.90625 -1.03125 C 0.800781 -0.75 0.617188 -0.644531 0.359375 -0.71875 C 0.203125 -0.75 0.113281 -0.84375 0.09375 -1 C 0.0820312 -1.09375 0.078125 -1.195312 0.078125 -1.3125 C 0.078125 -1.40625 0.078125 -1.5 0.078125 -1.59375 C 0.0546875 -2.257812 0.0351562 -2.929688 0.015625 -3.609375 C 0.015625 -3.679688 0.0507812 -3.734375 0.125 -3.765625 C 0.207031 -3.796875 0.300781 -3.8125 0.40625 -3.8125 C 0.507812 -3.8125 0.597656 -3.796875 0.671875 -3.765625 C 0.742188 -3.734375 0.785156 -3.691406 0.796875 -3.640625 C 0.816406 -3.535156 0.828125 -3.441406 0.828125 -3.359375 C 0.828125 -3.242188 0.832031 -3.160156 0.84375 -3.109375 C 0.863281 -3.066406 0.898438 -3.070312 0.953125 -3.125 C 1.003906 -3.175781 1.09375 -3.285156 1.21875 -3.453125 C 1.425781 -3.773438 1.679688 -4.050781 1.984375 -4.28125 C 2.128906 -4.382812 2.289062 -4.457031 2.46875 -4.5 C 2.65625 -4.550781 2.835938 -4.554688 3.015625 -4.515625 C 3.191406 -4.472656 3.332031 -4.367188 3.4375 -4.203125 C 3.550781 -4.046875 3.632812 -3.863281 3.6875 -3.65625 C 3.738281 -3.445312 3.773438 -3.253906 3.796875 -3.078125 C 3.804688 -3.023438 3.816406 -2.984375 3.828125 -2.953125 C 3.867188 -2.722656 3.921875 -2.507812 3.984375 -2.3125 C 4.054688 -2.125 4.164062 -1.972656 4.3125 -1.859375 C 4.46875 -1.742188 4.695312 -1.703125 5 -1.734375 C 5.644531 -1.773438 6.15625 -1.90625 6.53125 -2.125 C 6.914062 -2.351562 7.238281 -2.59375 7.5 -2.84375 C 7.539062 -2.875 7.578125 -2.910156 7.609375 -2.953125 C 7.660156 -2.984375 7.707031 -3.019531 7.75 -3.0625 C 7.851562 -3.164062 7.976562 -3.257812 8.125 -3.34375 Z M 8.125 -3.34375 "/></g></g></g><g fill="#000000" fill-opacity="1"><g transform="translate(37.578022, 18.677944)"><g><path d="M 7.5 -3.453125 C 7.550781 -3.441406 7.546875 -3.363281 7.484375 -3.21875 C 7.429688 -3.070312 7.320312 -2.890625 7.15625 -2.671875 C 6.945312 -2.441406 6.609375 -2.179688 6.140625 -1.890625 C 5.671875 -1.597656 5.128906 -1.328125 4.515625 -1.078125 C 3.898438 -0.835938 3.28125 -0.664062 2.65625 -0.5625 C 2.03125 -0.46875 1.460938 -0.492188 0.953125 -0.640625 C 0.398438 -0.804688 0.0859375 -1.160156 0.015625 -1.703125 C -0.0234375 -2.015625 -0.00390625 -2.316406 0.078125 -2.609375 C 0.171875 -2.921875 0.320312 -3.191406 0.53125 -3.421875 C 0.75 -3.660156 1.015625 -3.84375 1.328125 -3.96875 C 1.628906 -4.070312 1.9375 -4.109375 2.25 -4.078125 C 2.570312 -4.054688 2.835938 -3.960938 3.046875 -3.796875 C 3.078125 -3.765625 3.09375 -3.722656 3.09375 -3.671875 C 3.09375 -3.628906 3.085938 -3.585938 3.078125 -3.546875 C 3.035156 -3.398438 2.96875 -3.332031 2.875 -3.34375 C 2.78125 -3.351562 2.671875 -3.390625 2.546875 -3.453125 C 2.460938 -3.503906 2.367188 -3.546875 2.265625 -3.578125 C 2.160156 -3.617188 2.050781 -3.628906 1.9375 -3.609375 C 1.613281 -3.566406 1.347656 -3.398438 1.140625 -3.109375 C 0.972656 -2.878906 0.859375 -2.625 0.796875 -2.34375 C 0.734375 -2.0625 0.757812 -1.804688 0.875 -1.578125 C 1.03125 -1.285156 1.300781 -1.109375 1.6875 -1.046875 C 2.070312 -0.992188 2.515625 -1.023438 3.015625 -1.140625 C 3.523438 -1.253906 4.039062 -1.414062 4.5625 -1.625 C 5.082031 -1.84375 5.554688 -2.070312 5.984375 -2.3125 C 6.421875 -2.550781 6.753906 -2.769531 6.984375 -2.96875 C 7.234375 -3.175781 7.375 -3.3125 7.40625 -3.375 C 7.4375 -3.40625 7.457031 -3.425781 7.46875 -3.4375 C 7.476562 -3.445312 7.488281 -3.453125 7.5 -3.453125 Z M 7.5 -3.453125 "/></g></g></g><path fill="#000000" d="M 36.957031 12.300781 C 36.957031 12.300781 36.941406 12.335938 36.949219 12.335938 C 36.957031 12.339844 36.972656 12.320312 36.972656 12.316406 C 36.976562 12.3125 36.972656 12.316406 36.972656 12.316406 C 36.96875 12.308594 36.976562 12.289062 36.972656 12.285156 C 36.96875 12.28125 36.957031 12.300781 36.957031 12.300781 " fill-opacity="1" fill-rule="nonzero"/><g clip-path="url(#65d0a02dc3)"><path fill="#000000" d="M 43.070312 9.160156 C 43.066406 9.164062 43.082031 9.171875 43.085938 9.171875 C 43.089844 9.171875 43.097656 9.167969 43.09375 9.160156 C 43.09375 9.15625 43.070312 9.15625 43.070312 9.160156 " fill-opacity="1" fill-rule="nonzero"/></g><path fill="#000000" d="M 41.421875 12.105469 C 41.425781 12.117188 41.4375 12.125 41.441406 12.128906 C 41.441406 12.125 41.4375 12.121094 41.4375 12.121094 C 41.390625 12.019531 41.398438 11.910156 41.386719 11.804688 C 41.382812 11.804688 41.375 11.808594 41.375 11.808594 C 41.371094 11.8125 41.375 11.8125 41.375 11.8125 C 41.359375 11.914062 41.398438 12.007812 41.421875 12.105469 " fill-opacity="1" fill-rule="nonzero"/><path fill="#000000" d="M 34.867188 11.875 C 34.867188 11.878906 34.867188 11.878906 34.867188 11.878906 C 34.867188 11.878906 34.867188 11.878906 34.863281 11.878906 C 34.859375 11.878906 34.84375 11.902344 34.847656 11.90625 C 34.847656 11.90625 34.878906 11.894531 34.882812 11.890625 C 34.882812 11.890625 34.878906 11.890625 34.878906 11.890625 C 34.882812 11.890625 34.882812 11.890625 34.882812 11.890625 C 34.894531 11.890625 34.894531 11.851562 34.890625 11.851562 C 34.886719 11.847656 34.867188 11.867188 34.867188 11.875 " fill-opacity="1" fill-rule="nonzero"/><path fill="#000000" d="M 33.550781 9.359375 C 33.550781 9.363281 33.550781 9.363281 33.550781 9.367188 C 33.554688 9.382812 33.558594 9.394531 33.550781 9.359375 " fill-opacity="1" fill-rule="nonzero"/><path fill="#000000" d="M 42.097656 6.871094 C 42.101562 6.867188 42.101562 6.867188 42.101562 6.867188 C 42.09375 6.871094 42.09375 6.871094 42.097656 6.871094 " fill-opacity="1" fill-rule="nonzero"/><path fill="#000000" d="M 33.546875 9.351562 C 33.550781 9.367188 33.550781 9.367188 33.550781 9.367188 C 33.546875 9.351562 33.539062 9.335938 33.546875 9.351562 " fill-opacity="1" fill-rule="nonzero"/><path fill="#000000" d="M 42.101562 6.867188 C 42.105469 6.863281 42.109375 6.863281 42.101562 6.867188 C 42.101562 6.867188 42.097656 6.867188 42.097656 6.867188 C 42.097656 6.867188 42.097656 6.867188 42.101562 6.867188 " fill-opacity="1" fill-rule="nonzero"/><g clip-path="url(#95225347c1)"><path fill="#000000" d="M 41.707031 10.054688 C 41.585938 9.953125 41.476562 9.871094 41.390625 9.730469 C 41.382812 9.722656 41.5625 9.539062 41.597656 9.523438 C 41.683594 9.679688 41.765625 9.847656 41.847656 10.011719 C 41.824219 10.023438 41.726562 10.074219 41.707031 10.054688 Z M 42.511719 9.96875 Z M 42.511719 9.96875 C 42.515625 9.96875 42.519531 9.96875 42.519531 9.96875 C 42.515625 9.96875 42.515625 9.96875 42.511719 9.96875 Z M 40.972656 11.511719 C 40.960938 11.507812 40.890625 11.484375 40.890625 11.472656 C 40.886719 11.460938 40.941406 11.414062 40.953125 11.414062 C 40.964844 11.414062 41.003906 11.464844 41.011719 11.476562 C 41.015625 11.488281 40.988281 11.511719 40.972656 11.511719 Z M 40.597656 11.84375 C 40.597656 11.832031 40.632812 11.816406 40.640625 11.824219 C 40.644531 11.835938 40.675781 11.960938 40.671875 11.960938 C 40.671875 11.960938 40.601562 11.855469 40.597656 11.84375 Z M 34.558594 8.757812 C 34.542969 8.761719 34.457031 8.722656 34.453125 8.703125 C 34.453125 8.6875 34.53125 8.625 34.550781 8.613281 C 34.574219 8.605469 34.644531 8.636719 34.644531 8.652344 C 34.640625 8.667969 34.578125 8.75 34.558594 8.757812 Z M 43.488281 7.332031 C 43.089844 7.359375 42.707031 7.414062 42.3125 7.449219 C 42.15625 7.460938 42 7.4375 41.847656 7.429688 C 41.910156 7.347656 42.058594 7.238281 42.089844 7.148438 C 42.117188 7.0625 42.03125 6.902344 42.085938 6.871094 C 42.09375 6.867188 42.097656 6.867188 42.101562 6.867188 C 42.117188 6.8125 42.140625 6.734375 42.164062 6.6875 C 42.261719 6.492188 42.144531 6.535156 42.011719 6.546875 C 41.875 6.558594 41.699219 6.683594 41.578125 6.605469 C 41.460938 6.523438 41.476562 6.355469 41.464844 6.207031 C 41.449219 6.058594 41.472656 5.832031 41.476562 5.675781 C 41.265625 5.714844 41.066406 5.777344 40.859375 5.84375 C 40.652344 5.90625 40.539062 5.941406 40.40625 5.714844 C 40.226562 5.40625 40.183594 5.144531 40.441406 4.835938 C 40.488281 4.785156 40.503906 4.652344 40.515625 4.582031 C 40.445312 4.632812 40.351562 4.699219 40.296875 4.757812 C 40.148438 4.925781 40.011719 4.960938 39.890625 4.765625 C 39.839844 4.6875 39.902344 4.527344 39.792969 4.496094 C 39.792969 4.496094 39.792969 4.496094 39.792969 4.5 C 39.792969 4.496094 39.792969 4.492188 39.792969 4.492188 C 39.789062 4.488281 39.769531 4.464844 39.769531 4.46875 C 39.769531 4.46875 39.785156 4.496094 39.789062 4.503906 C 39.789062 4.503906 39.789062 4.5 39.792969 4.5 C 39.789062 4.5 39.789062 4.503906 39.789062 4.503906 C 39.714844 4.585938 39.648438 4.585938 39.566406 4.683594 C 39.480469 4.777344 39.386719 4.960938 39.320312 5.082031 C 39.183594 5.332031 38.917969 5.179688 38.761719 5.394531 C 38.71875 5.25 38.660156 5.167969 38.632812 5.003906 C 38.605469 4.839844 38.628906 4.566406 38.542969 4.40625 C 38.40625 4.152344 38.433594 3.980469 38.558594 3.734375 C 38.179688 3.574219 38.136719 3.613281 38.164062 4.003906 C 38.1875 4.394531 38.089844 4.695312 37.894531 5.027344 C 37.777344 5.234375 37.617188 5.238281 37.460938 5.046875 C 37.402344 4.976562 37.324219 4.882812 37.269531 4.796875 C 37.148438 4.613281 37.027344 4.414062 36.914062 4.226562 C 36.71875 4.453125 36.890625 4.65625 36.925781 4.894531 C 36.9375 4.972656 36.90625 5.078125 36.871094 5.101562 C 36.835938 5.125 36.707031 5.0625 36.679688 5.011719 C 36.496094 4.644531 36.335938 4.246094 36.152344 3.875 C 36.097656 3.757812 35.996094 3.664062 35.917969 3.5625 C 35.902344 3.675781 35.84375 3.8125 35.878906 3.921875 C 36.039062 4.414062 36.230469 4.882812 36.398438 5.371094 C 36.429688 5.464844 36.425781 5.566406 36.4375 5.664062 C 36.316406 5.65625 36.183594 5.589844 36.078125 5.660156 C 36.066406 5.667969 36.082031 5.699219 36.082031 5.703125 C 36.082031 5.703125 36.070312 5.675781 36.066406 5.671875 C 35.160156 5.523438 34.414062 5.226562 33.707031 4.636719 C 33.566406 4.519531 33.371094 4.460938 33.214844 4.359375 C 32.8125 4.09375 32.410156 3.78125 32.023438 3.507812 C 31.960938 3.460938 31.855469 3.382812 31.835938 3.363281 C 31.757812 3.296875 31.328125 3.117188 31.4375 3.324219 C 31.546875 3.53125 31.75 3.695312 31.949219 3.816406 C 32.335938 4.050781 32.753906 4.21875 33.15625 4.425781 C 33.582031 4.898438 34.121094 5.308594 34.652344 5.625 C 34.964844 5.808594 35.140625 6.121094 34.949219 6.386719 C 34.820312 6.570312 34.832031 6.5625 34.976562 6.648438 C 35.117188 6.738281 35.199219 6.824219 35.292969 6.910156 C 35.390625 6.992188 35.425781 7.015625 35.511719 7.089844 C 35.425781 7.121094 35.332031 7.195312 35.242188 7.195312 C 34.617188 7.195312 33.996094 7.21875 33.410156 7.015625 C 33.222656 6.949219 32.996094 6.84375 32.839844 6.816406 C 32.683594 6.789062 32.46875 6.855469 32.4375 6.941406 C 32.339844 7.1875 32.574219 7.160156 32.726562 7.207031 C 32.789062 7.226562 32.847656 7.214844 32.90625 7.222656 C 33.535156 7.300781 34.167969 7.390625 34.785156 7.503906 C 34.917969 7.527344 35.078125 7.59375 35.164062 7.65625 C 35.246094 7.722656 35.296875 7.800781 35.253906 7.882812 C 35.207031 7.96875 35.046875 7.996094 34.960938 8.058594 C 34.804688 7.800781 34.648438 7.976562 34.582031 8.113281 C 34.414062 8.464844 34.144531 8.632812 33.839844 8.765625 C 33.535156 8.898438 33.484375 9.128906 33.539062 9.324219 C 33.542969 9.339844 33.546875 9.351562 33.550781 9.359375 C 33.550781 9.355469 33.546875 9.355469 33.550781 9.359375 C 33.554688 9.363281 33.550781 9.359375 33.554688 9.355469 C 33.828125 9.117188 34.191406 9.117188 34.535156 9.023438 C 34.605469 9.007812 34.675781 9 34.75 8.992188 C 34.726562 9.070312 34.722656 9.160156 34.664062 9.222656 C 34.386719 9.539062 34.210938 9.863281 33.816406 10.066406 C 33.773438 10.089844 33.742188 10.210938 33.730469 10.265625 C 33.789062 10.269531 33.878906 10.296875 33.933594 10.265625 C 34.351562 10.042969 34.742188 9.800781 35.164062 9.585938 C 35.292969 9.519531 35.453125 9.511719 35.59375 9.476562 C 35.523438 9.585938 35.460938 9.691406 35.371094 9.785156 C 34.960938 10.1875 34.519531 10.542969 34.097656 10.9375 C 34.019531 11.007812 34.007812 11.144531 33.972656 11.242188 C 34.066406 11.269531 34.15625 11.3125 34.253906 11.316406 C 34.351562 11.324219 34.46875 11.292969 34.558594 11.28125 C 34.957031 11.230469 34.992188 11.269531 34.929688 11.65625 C 34.921875 11.714844 34.902344 11.789062 34.894531 11.84375 C 35.035156 11.679688 35.257812 11.445312 35.390625 11.296875 C 35.519531 11.148438 35.679688 10.875 35.835938 10.867188 C 36.136719 10.851562 35.914062 11.199219 36.027344 11.316406 C 36.328125 11.625 36.238281 11.886719 36.191406 12.261719 C 36.183594 12.320312 36.207031 12.367188 36.214844 12.421875 C 36.363281 12.175781 36.503906 11.902344 36.652344 11.667969 C 36.6875 11.609375 36.765625 11.527344 36.8125 11.535156 C 36.863281 11.539062 36.941406 11.648438 36.949219 11.710938 C 36.980469 11.890625 36.96875 12.097656 36.972656 12.28125 C 37.011719 12.234375 37.03125 12.203125 37.074219 12.152344 C 37.117188 12.101562 37.183594 12.03125 37.230469 11.976562 C 37.234375 12.042969 37.253906 12.113281 37.238281 12.179688 C 37.101562 12.882812 36.945312 13.574219 36.8125 14.285156 C 36.800781 14.355469 36.886719 14.457031 36.921875 14.519531 C 36.964844 14.476562 37.066406 14.410156 37.070312 14.351562 C 37.109375 13.566406 37.257812 12.875 37.613281 12.171875 C 37.660156 12.074219 37.753906 12 37.820312 11.917969 C 37.878906 11.988281 37.945312 12.070312 37.996094 12.136719 C 38.050781 12.207031 38.085938 12.269531 38.136719 12.335938 C 38.160156 12.265625 38.171875 12.1875 38.210938 12.125 C 38.25 12.0625 38.308594 12.019531 38.359375 11.96875 C 38.394531 12.03125 38.445312 12.09375 38.460938 12.167969 C 38.496094 12.324219 38.507812 12.484375 38.53125 12.640625 C 38.550781 12.484375 38.558594 12.296875 38.585938 12.144531 C 38.59375 12.09375 38.632812 12 38.664062 12 C 38.707031 12 38.800781 12.089844 38.8125 12.148438 C 38.878906 12.539062 38.921875 12.957031 38.980469 13.34375 C 38.988281 13.394531 39.054688 13.476562 39.074219 13.472656 C 39.097656 13.464844 39.128906 13.363281 39.121094 13.3125 C 39.0625 12.910156 39.046875 12.425781 39.226562 12.070312 C 39.402344 11.714844 39.503906 11.75 39.832031 11.933594 C 40.160156 12.117188 40.472656 12.46875 40.875 12.546875 C 40.824219 12.382812 40.769531 12.210938 40.714844 12.042969 C 40.851562 12.152344 41.007812 12.25 41.121094 12.375 C 41.230469 12.503906 41.269531 12.65625 41.363281 12.796875 C 41.402344 12.855469 41.480469 12.886719 41.542969 12.929688 C 41.542969 12.867188 41.558594 12.773438 41.535156 12.714844 C 41.429688 12.472656 41.253906 12.1875 41.175781 11.960938 C 41.101562 11.738281 41.269531 11.871094 41.371094 11.808594 C 41.335938 11.640625 41.300781 11.46875 41.261719 11.300781 C 41.53125 11.285156 41.492188 11.152344 41.496094 10.933594 C 41.496094 10.929688 41.554688 10.921875 41.59375 10.921875 C 42.007812 10.902344 42.332031 10.835938 42.636719 11.199219 C 42.679688 11.25 42.859375 11.253906 42.933594 11.253906 C 42.921875 11.160156 42.933594 11 42.863281 10.9375 C 42.675781 10.765625 42.449219 10.660156 42.257812 10.511719 C 42.210938 10.476562 42.167969 10.375 42.183594 10.335938 C 42.191406 10.304688 42.296875 10.277344 42.34375 10.285156 C 42.605469 10.328125 42.488281 10.144531 42.507812 9.996094 C 42.507812 9.984375 42.507812 9.980469 42.511719 9.972656 C 42.511719 9.980469 42.511719 9.980469 42.511719 9.976562 C 42.570312 10.03125 42.605469 9.988281 42.703125 9.992188 C 42.800781 9.996094 42.933594 10.125 42.964844 9.929688 C 42.847656 9.933594 42.621094 9.945312 42.527344 9.964844 C 42.519531 9.96875 42.515625 9.96875 42.511719 9.96875 C 42.511719 9.964844 42.511719 9.964844 42.511719 9.964844 C 42.511719 9.96875 42.511719 9.96875 42.511719 9.96875 C 42.511719 9.96875 42.511719 9.96875 42.511719 9.964844 C 42.511719 9.96875 42.511719 9.96875 42.507812 9.96875 C 42.5 9.972656 42.503906 9.972656 42.507812 9.96875 C 42.445312 9.980469 42.433594 10.019531 42.355469 9.992188 C 42.273438 9.960938 42.269531 9.859375 42.3125 9.761719 C 42.332031 9.726562 42.328125 9.675781 42.320312 9.605469 C 42.316406 9.535156 42.191406 9.339844 42.277344 9.253906 C 42.359375 9.167969 42.539062 9.160156 42.667969 9.148438 C 42.796875 9.140625 42.9375 9.152344 43.066406 9.160156 C 42.765625 8.929688 42.566406 8.695312 42.164062 8.699219 C 41.90625 8.699219 41.925781 8.511719 41.878906 8.3125 C 41.863281 8.246094 42.015625 8.089844 42.074219 8.097656 C 42.242188 8.128906 42.351562 8.234375 42.496094 8.308594 C 42.488281 8.117188 42.429688 7.957031 42.640625 7.859375 C 42.761719 7.800781 42.910156 7.78125 43.050781 7.761719 C 43.195312 7.738281 43.40625 7.785156 43.539062 7.726562 C 43.675781 7.664062 43.683594 7.515625 43.757812 7.410156 C 43.671875 7.382812 43.574219 7.324219 43.488281 7.332031 " fill-opacity="1" fill-rule="nonzero"/></g><path fill="#000000" d="M 34.246094 12.367188 C 34.246094 12.378906 34.238281 12.378906 34.234375 12.382812 C 34.132812 12.535156 34.019531 12.671875 33.929688 12.832031 C 33.894531 12.894531 33.90625 12.980469 33.902344 13.050781 C 33.957031 13.03125 34.054688 13.023438 34.089844 12.976562 C 34.351562 12.621094 34.59375 12.265625 34.84375 11.90625 C 34.738281 11.949219 34.609375 11.996094 34.503906 12.019531 C 34.28125 12.0625 34.230469 12.164062 34.246094 12.367188 " fill-opacity="1" fill-rule="nonzero"/><path fill="#000000" d="M 32.695312 9.328125 C 32.65625 9.359375 32.605469 9.433594 32.617188 9.464844 C 32.632812 9.496094 32.730469 9.519531 32.78125 9.511719 C 33.03125 9.46875 33.296875 9.410156 33.546875 9.359375 C 33.203125 9.144531 33.023438 9.082031 32.695312 9.328125 " fill-opacity="1" fill-rule="nonzero"/><path fill="#000000" d="M 38.496094 13.316406 C 38.5 13.390625 38.570312 13.46875 38.585938 13.546875 C 38.621094 13.480469 38.699219 13.433594 38.691406 13.351562 C 38.683594 13.265625 38.613281 13.179688 38.570312 13.101562 C 38.558594 13.175781 38.496094 13.246094 38.496094 13.316406 " fill-opacity="1" fill-rule="nonzero"/><path fill="#000000" d="M 42.515625 7.101562 C 42.589844 7.128906 42.699219 7.058594 42.78125 7.035156 C 42.695312 6.980469 42.6875 6.914062 42.566406 6.890625 C 42.449219 6.867188 42.242188 6.875 42.101562 6.871094 C 42.238281 6.949219 42.351562 7.050781 42.515625 7.101562 " fill-opacity="1" fill-rule="nonzero"/><g clip-path="url(#11c9b084d6)"><path fill="#000000" d="M 41.355469 3.402344 C 41.355469 3.402344 41.371094 3.417969 41.375 3.414062 C 41.375 3.414062 41.375 3.382812 41.367188 3.382812 C 41.363281 3.382812 41.363281 3.386719 41.363281 3.386719 C 41.363281 3.382812 41.367188 3.382812 41.367188 3.382812 C 41.492188 3.257812 41.652344 3.171875 41.792969 3.0625 C 41.816406 3.042969 41.804688 2.933594 41.78125 2.921875 C 41.757812 2.90625 41.660156 2.917969 41.636719 2.949219 C 41.535156 3.082031 41.445312 3.25 41.363281 3.386719 C 41.359375 3.390625 41.355469 3.394531 41.355469 3.398438 C 41.351562 3.402344 41.351562 3.40625 41.355469 3.398438 C 41.355469 3.398438 41.355469 3.402344 41.355469 3.402344 " fill-opacity="1" fill-rule="nonzero"/></g><path fill="#000000" d="M 42.304688 5.207031 C 42.332031 5.179688 42.289062 5.105469 42.28125 5.074219 C 42.164062 5.132812 42.042969 5.191406 41.929688 5.253906 C 41.898438 5.269531 41.878906 5.296875 41.855469 5.320312 C 42.046875 5.433594 42.171875 5.367188 42.304688 5.207031 " fill-opacity="1" fill-rule="nonzero"/><path fill="#000000" d="M 36.214844 12.421875 C 36.214844 12.421875 36.210938 12.429688 36.210938 12.433594 C 36.210938 12.4375 36.214844 12.449219 36.214844 12.453125 C 36.214844 12.453125 36.222656 12.445312 36.222656 12.441406 C 36.222656 12.441406 36.214844 12.441406 36.21875 12.4375 C 36.21875 12.4375 36.21875 12.445312 36.222656 12.441406 C 36.226562 12.441406 36.21875 12.421875 36.214844 12.421875 " fill-opacity="1" fill-rule="nonzero"/><path fill="#000000" d="M 36.210938 12.464844 C 36.191406 12.460938 36.132812 12.542969 36.121094 12.585938 C 36.097656 12.707031 36.089844 12.855469 36.078125 12.980469 C 36.132812 12.863281 36.199219 12.730469 36.238281 12.609375 C 36.25 12.570312 36.234375 12.46875 36.210938 12.464844 " fill-opacity="1" fill-rule="nonzero"/><path fill="#000000" d="M 40.917969 12.953125 C 40.917969 12.972656 40.953125 12.988281 40.984375 13.042969 C 41.015625 13.097656 41.101562 13.261719 41.144531 13.320312 C 41.15625 13.335938 41.207031 13.28125 41.21875 13.28125 C 41.15625 13.167969 41.09375 13.054688 41.019531 12.953125 C 41.007812 12.933594 40.914062 12.929688 40.917969 12.953125 " fill-opacity="1" fill-rule="nonzero"/><g clip-path="url(#ed467b277a)"><path fill="#000000" d="M 36.429688 3.316406 C 36.449219 3.324219 36.535156 3.246094 36.527344 3.210938 C 36.507812 3.148438 36.402344 3.03125 36.367188 2.960938 C 36.34375 3.015625 36.300781 3.097656 36.308594 3.152344 C 36.320312 3.210938 36.398438 3.304688 36.429688 3.316406 " fill-opacity="1" fill-rule="nonzero"/></g><path fill="#000000" d="M 35.847656 13.515625 C 35.8125 13.515625 35.765625 13.605469 35.761719 13.636719 C 35.757812 13.664062 35.78125 13.785156 35.8125 13.785156 C 35.855469 13.78125 35.941406 13.664062 35.988281 13.636719 C 35.949219 13.613281 35.882812 13.515625 35.847656 13.515625 " fill-opacity="1" fill-rule="nonzero"/><g clip-path="url(#413232a6f7)"><path fill="#000000" d="M 32.050781 9.667969 C 32.019531 9.691406 31.871094 9.792969 31.855469 9.824219 C 31.847656 9.835938 31.960938 9.855469 31.992188 9.839844 C 32.019531 9.824219 32.140625 9.710938 32.152344 9.683594 C 32.160156 9.671875 32.082031 9.644531 32.050781 9.667969 " fill-opacity="1" fill-rule="nonzero"/></g><path fill="#000000" d="M 33.679688 6.253906 C 33.671875 6.25 33.597656 6.226562 33.582031 6.226562 C 33.570312 6.222656 33.550781 6.253906 33.558594 6.257812 C 33.566406 6.265625 33.640625 6.285156 33.65625 6.285156 C 33.667969 6.289062 33.6875 6.261719 33.679688 6.253906 " fill-opacity="1" fill-rule="nonzero"/><path fill="#000000" d="M 38.578125 3.742188 C 38.582031 3.738281 38.574219 3.722656 38.574219 3.71875 C 38.570312 3.71875 38.5625 3.726562 38.5625 3.726562 C 38.566406 3.730469 38.558594 3.734375 38.558594 3.734375 C 38.5625 3.734375 38.578125 3.742188 38.578125 3.742188 " fill-opacity="1" fill-rule="nonzero"/><path fill="#000000" d="M 38.578125 3.707031 C 38.601562 3.714844 38.671875 3.632812 38.683594 3.609375 C 38.699219 3.582031 38.71875 3.472656 38.695312 3.46875 C 38.671875 3.460938 38.574219 3.546875 38.558594 3.578125 C 38.542969 3.609375 38.554688 3.703125 38.578125 3.707031 " fill-opacity="1" fill-rule="nonzero"/><g clip-path="url(#1dc6a1308f)"><path fill="#000000" d="M 39.269531 14.472656 C 39.269531 14.476562 39.335938 14.488281 39.339844 14.484375 C 39.34375 14.480469 39.320312 14.429688 39.316406 14.429688 C 39.308594 14.429688 39.265625 14.464844 39.269531 14.472656 " fill-opacity="1" fill-rule="nonzero"/></g><g clip-path="url(#c706edf4c8)"><path fill="#000000" d="M 39.320312 14.414062 C 39.324219 14.421875 39.308594 14.410156 39.308594 14.410156 C 39.308594 14.410156 39.3125 14.421875 39.316406 14.425781 C 39.316406 14.425781 39.324219 14.417969 39.324219 14.417969 C 39.289062 14.390625 39.25 14.324219 39.230469 14.300781 C 39.207031 14.273438 39.179688 14.191406 39.171875 14.195312 C 39.160156 14.203125 39.160156 14.308594 39.179688 14.339844 C 39.199219 14.371094 39.28125 14.402344 39.304688 14.40625 C 39.324219 14.414062 39.320312 14.414062 39.320312 14.414062 " fill-opacity="1" fill-rule="nonzero"/></g><path fill="#000000" d="M 40.902344 12.941406 C 40.917969 12.851562 40.894531 12.632812 40.894531 12.570312 C 40.894531 12.5625 40.894531 12.558594 40.894531 12.554688 C 40.890625 12.542969 40.882812 12.550781 40.878906 12.550781 C 40.875 12.550781 40.886719 12.5625 40.882812 12.566406 C 40.847656 12.65625 40.828125 12.914062 40.894531 12.941406 C 40.941406 12.960938 40.902344 12.941406 40.902344 12.941406 " fill-opacity="1" fill-rule="nonzero"/><path fill="#000000" d="M 36.628906 3.640625 C 36.636719 3.636719 36.667969 3.5625 36.667969 3.550781 C 36.667969 3.539062 36.636719 3.507812 36.628906 3.511719 C 36.621094 3.519531 36.597656 3.585938 36.59375 3.601562 C 36.589844 3.617188 36.621094 3.648438 36.628906 3.640625 " fill-opacity="1" fill-rule="nonzero"/><path fill="#000000" d="M 36.945312 12.34375 C 36.945312 12.34375 36.886719 12.402344 36.882812 12.410156 C 36.882812 12.417969 36.917969 12.445312 36.925781 12.441406 C 36.929688 12.4375 36.949219 12.347656 36.945312 12.34375 " fill-opacity="1" fill-rule="nonzero"/><path fill="#000000" d="M 41.015625 4.054688 C 41.011719 4.054688 40.992188 4.0625 40.992188 4.066406 C 40.996094 4.066406 41.015625 4.066406 41.015625 4.0625 C 41.015625 4.0625 41.015625 4.058594 41.015625 4.058594 C 41.015625 4.058594 41.015625 4.058594 41.019531 4.058594 C 41.097656 4.0625 41.125 3.902344 41.136719 3.855469 C 41.148438 3.808594 41.15625 3.714844 41.136719 3.707031 C 41.113281 3.695312 41.027344 3.75 41.015625 3.804688 C 41.003906 3.859375 41.007812 3.984375 41.015625 4.050781 C 41.015625 4.054688 41.015625 4.054688 41.015625 4.054688 " fill-opacity="1" fill-rule="nonzero"/><path fill="#000000" d="M 40.75 4.207031 C 40.757812 4.207031 40.777344 4.21875 40.78125 4.21875 C 40.789062 4.21875 40.757812 4.203125 40.769531 4.195312 C 40.835938 4.152344 40.917969 4.109375 40.992188 4.066406 C 40.859375 4.066406 40.800781 4.035156 40.753906 4.183594 C 40.753906 4.1875 40.746094 4.203125 40.746094 4.207031 C 40.75 4.210938 40.75 4.207031 40.75 4.207031 " fill-opacity="1" fill-rule="nonzero"/><path fill="#000000" d="M 40.765625 5.328125 C 40.75 5.339844 40.808594 5.402344 40.816406 5.398438 C 40.820312 5.398438 40.789062 5.34375 40.785156 5.335938 C 40.78125 5.335938 40.78125 5.335938 40.78125 5.332031 C 40.785156 5.332031 40.816406 5.324219 40.8125 5.320312 C 40.8125 5.316406 40.769531 5.316406 40.769531 5.324219 C 40.769531 5.328125 40.769531 5.328125 40.769531 5.328125 C 40.769531 5.328125 40.769531 5.324219 40.765625 5.328125 " fill-opacity="1" fill-rule="nonzero"/><path fill="#000000" d="M 41.84375 5.335938 C 41.847656 5.339844 41.863281 5.351562 41.863281 5.351562 C 41.867188 5.347656 41.855469 5.324219 41.855469 5.324219 C 41.855469 5.320312 41.859375 5.320312 41.855469 5.320312 C 41.851562 5.320312 41.839844 5.332031 41.84375 5.335938 C 41.84375 5.335938 41.84375 5.335938 41.847656 5.332031 C 41.84375 5.335938 41.84375 5.335938 41.84375 5.335938 " fill-opacity="1" fill-rule="nonzero"/><path fill="#000000" d="M 41.472656 5.667969 C 41.476562 5.667969 41.476562 5.667969 41.476562 5.667969 C 41.476562 5.667969 41.476562 5.671875 41.476562 5.671875 C 41.480469 5.671875 41.492188 5.675781 41.492188 5.667969 C 41.488281 5.65625 41.445312 5.65625 41.441406 5.660156 C 41.4375 5.664062 41.46875 5.664062 41.472656 5.667969 " fill-opacity="1" fill-rule="nonzero"/><path fill="#000000" d="M 42.375 11.292969 C 42.375 11.296875 42.40625 11.300781 42.410156 11.296875 C 42.410156 11.296875 42.398438 11.265625 42.394531 11.265625 C 42.394531 11.265625 42.375 11.292969 42.375 11.292969 " fill-opacity="1" fill-rule="nonzero"/></svg>